<svg width="62" height="56" viewBox="0 0 62 56" fill="none" xmlns="http://www.w3.org/2000/svg">
<rect x="0.0976562" y="5.24316" width="61.1707" height="50.6843" rx="6.99094" fill="#7D88C3"/>
<path d="M0.0976562 6.99094C0.0976562 3.12995 3.22761 0 7.0886 0C10.9496 0 14.0795 3.12995 14.0795 6.99094V55.9275H7.0886C3.22761 55.9275 0.0976562 52.7976 0.0976562 48.9366V6.99094Z" fill="#273A9C"/>
<path d="M47.2865 6.99094C47.2865 3.12995 50.4165 0 54.2774 0C58.1384 0 61.2684 3.12995 61.2684 6.99094V48.9366C61.2684 52.7976 58.1384 55.9275 54.2774 55.9275H47.2865V6.99094Z" fill="#273A9C"/>
<path d="M0.0976562 43.6934H61.2684V48.9366C61.2684 52.7976 58.1384 55.9275 54.2774 55.9275H7.0886C3.22761 55.9275 0.0976562 52.7976 0.0976562 48.9366V43.6934Z" fill="#273A9C"/>
<path d="M7.08838 0V48.9366H54.2772V0C50.4162 0 47.2863 3.12995 47.2863 6.99094V43.6934H14.0793V6.99094C14.0793 3.12995 10.9494 0 7.08838 0Z" fill="#5161AF"/>
</svg>
