<svg width="61" height="56" viewBox="0 0 61 56" fill="none" xmlns="http://www.w3.org/2000/svg">
<circle cx="30.0169" cy="22.7206" r="22.7206" fill="#7D88C3"/>
<path d="M60.6689 33.7686C55.6588 45.756 43.8216 54.1795 30.017 54.1795C16.7656 54.1795 5.32711 46.4176 0 35.1922C0.599764 34.3729 1.24841 33.5795 1.9427 32.8147C7.13347 41.3435 17.7561 47.1886 30.017 47.1886C42.8184 47.1886 53.834 40.8168 58.7458 31.6714C59.4247 32.346 60.0666 33.0457 60.6689 33.7686Z" fill="#5161AF"/>
<rect x="17.783" y="40.1978" width="3.49547" height="15.7296" rx="1.74774" transform="rotate(20.9856 17.783 40.1978)" fill="#273A9C"/>
<rect width="3.49547" height="15.7296" rx="1.74774" transform="matrix(-0.93367 0.358133 0.358133 0.93367 42.251 40.1978)" fill="#273A9C"/>
</svg>
