<svg width="24" height="24" viewBox="0 0 24 24" fill="none" xmlns="http://www.w3.org/2000/svg">
<path d="M13.4915 8C13.4915 7.44772 13.0438 7 12.4915 7C11.9392 7 11.4915 7.44772 11.4915 8V12.5V13.0153L11.9112 13.3144L15.4197 15.8144C15.8695 16.1349 16.4939 16.0301 16.8144 15.5803C17.1349 15.1305 17.0301 14.5061 16.5803 14.1856L13.4915 11.9847V8ZM5 12.5C5 8.35898 8.35309 5 12.4915 5C16.6404 5 20 8.36094 20 12.5C20 16.6391 16.6404 20 12.4915 20C8.35309 20 5 16.641 5 12.5Z" stroke="#1F1F1F" stroke-width="2" stroke-linecap="round"/>
</svg>
