<svg width="24" height="24" viewBox="0 0 24 24" fill="none" xmlns="http://www.w3.org/2000/svg">
<path d="M5 18.875C5 18.5298 5.1626 18.1572 5.6005 17.7479C6.04579 17.3316 6.70996 16.9451 7.52261 16.6158C9.14995 15.9563 11.1222 15.625 12.4 15.625C13.6778 15.625 15.65 15.9563 17.2774 16.6158C18.09 16.9451 18.7542 17.3316 19.1995 17.7479C19.6374 18.1572 19.8 18.5298 19.8 18.875V20H5V18.875ZM15.6 8.25C15.6 10.0525 14.1526 11.5 12.4 11.5C10.6474 11.5 9.2 10.0525 9.2 8.25C9.2 6.44752 10.6474 5 12.4 5C14.1526 5 15.6 6.44752 15.6 8.25Z" stroke="#1F1F1F" stroke-width="2"/>
</svg>
